<svg width="18" height="18" viewBox="0 0 18 18" fill="none" xmlns="http://www.w3.org/2000/svg">
<path d="M7.48465 9.75761C7.80999 10.1926 8.22507 10.5524 8.70173 10.8129C9.17839 11.0733 9.70548 11.2282 10.2473 11.267C10.789 11.3058 11.3328 11.2276 11.8417 11.0377C12.3506 10.8479 12.8128 10.5508 13.1968 10.1667L15.4695 7.89397C16.1595 7.17957 16.5413 6.22274 16.5327 5.22957C16.524 4.2364 16.1257 3.28636 15.4234 2.58405C14.721 1.88175 13.771 1.48338 12.7778 1.47475C11.7847 1.46612 10.8278 1.84792 10.1134 2.53791L8.8104 3.83337M10.5149 8.24246C10.1896 7.80751 9.77453 7.44762 9.29786 7.1872C8.8212 6.92678 8.29411 6.77191 7.75233 6.73311C7.21056 6.69431 6.66678 6.77248 6.15787 6.96232C5.64896 7.15216 5.18683 7.44922 4.80283 7.83337L2.5301 10.1061C1.84011 10.8205 1.45831 11.7773 1.46694 12.7705C1.47557 13.7637 1.87394 14.7137 2.57624 15.416C3.27854 16.1183 4.22859 16.5167 5.22176 16.5253C6.21493 16.5339 7.17176 16.1521 7.88616 15.4622L9.18161 14.1667" stroke="#A5ABB7" stroke-width="2" stroke-linecap="round" stroke-linejoin="round"/>
</svg>
