<svg width="16" height="17" viewBox="0 0 16 17" fill="none" xmlns="http://www.w3.org/2000/svg">
<path d="M11.333 2.49955C11.5081 2.32445 11.716 2.18556 11.9447 2.0908C12.1735 1.99604 12.4187 1.94727 12.6663 1.94727C12.914 1.94727 13.1592 1.99604 13.3879 2.0908C13.6167 2.18556 13.8246 2.32445 13.9997 2.49955C14.1748 2.67465 14.3137 2.88252 14.4084 3.11129C14.5032 3.34006 14.552 3.58526 14.552 3.83288C14.552 4.08051 14.5032 4.3257 14.4084 4.55448C14.3137 4.78325 14.1748 4.99112 13.9997 5.16622L4.99967 14.1662L1.33301 15.1662L2.33301 11.4995L11.333 2.49955Z" stroke="#074ADF" stroke-width="2" stroke-linecap="round" stroke-linejoin="round"/>
</svg>
