<svg width="24" height="42" viewBox="0 0 24 42" fill="none" xmlns="http://www.w3.org/2000/svg">
<path d="M1.23223 4.39326C0.255922 3.41694 0.255922 1.83403 1.23223 0.857721C2.20854 -0.118589 3.79146 -0.118589 4.76777 0.857721L1.23223 4.39326ZM21 20.6255L22.7678 18.8577C23.2366 19.3266 23.5 19.9624 23.5 20.6255C23.5 21.2885 23.2366 21.9244 22.7678 22.3933L21 20.6255ZM4.76777 40.3933C3.79145 41.3696 2.20854 41.3696 1.23223 40.3933C0.255921 39.4169 0.255921 37.834 1.23223 36.8577L4.76777 40.3933ZM4.76777 0.857721L22.7678 18.8577L19.2322 22.3933L1.23223 4.39326L4.76777 0.857721ZM22.7678 22.3933L4.76777 40.3933L1.23223 36.8577L19.2322 18.8577L22.7678 22.3933Z" fill="white"/>
</svg>